<?xml version="1.0" encoding="utf-8"?>
<!-- Generator: Adobe Illustrator 21.1.0, SVG Export Plug-In . SVG Version: 6.00 Build 0)  -->
<svg version="1.1" id="Laag_1" xmlns="http://www.w3.org/2000/svg" xmlns:xlink="http://www.w3.org/1999/xlink" x="0px" y="0px"
	 width="75px" height="75px" viewBox="0 0 75 75" style="enable-background:new 0 0 75 75;" xml:space="preserve">
<style type="text/css">
	.st0{fill:#FFFFFF;}
</style>
<g>
	<path class="st0" d="M5.1,67.7c0-17.6,0-35.1,0-52.7c0.7-2,1.9-3.7,4.1-3.9c2.4-0.3,4.9-0.1,7.4-0.1c0,2.3,0,4.5,0,6.8
		c0.1,3.7,2.9,6.7,6.5,7.1c3.6,0.4,7.1-2,7.8-5.6c0.3-1.6,0.2-3.3,0.2-4.9c0-1.2,0-2.3,0-3.4c5,0,9.7,0,14.6,0c0,2.3,0,4.5,0,6.7
		c0,1.8,0.6,3.4,1.8,4.8c2,2.3,5.1,3.1,7.9,2.1c2.9-1,4.8-3.6,4.9-6.7c0-2.3,0-4.6,0-6.9c1.8,0,3.4,0.1,5,0c3.2-0.2,5.4,1.1,6.5,4.2
		c0,17.6,0,35.1,0,52.7c-0.7,2.1-2.1,3.5-4.2,4.2c-19.5,0-38.9,0-58.4,0C7.2,71.2,5.8,69.8,5.1,67.7z M65.5,65.6
		c0-11.5,0-22.9,0-34.3c-18.1,0-36.1,0-54.1,0c0,11.5,0,22.8,0,34.3C29.5,65.6,47.5,65.6,65.5,65.6z"/>
	<path class="st0" d="M24.7,5.1c1.8,0.8,2.4,2.1,2.4,4c-0.1,2.7,0,5.4,0,8.1c0,2.1-1.3,3.5-3.1,3.5c-1.9,0-3.1-1.4-3.1-3.5
		c0-2.7,0.1-5.4,0-8.1c-0.1-1.9,0.6-3.3,2.4-4C23.6,5.1,24.2,5.1,24.7,5.1z"/>
	<path class="st0" d="M53.9,5.1c1.8,0.8,2.4,2.1,2.4,4c-0.1,2.7,0,5.4,0,8.1c0,2.1-1.3,3.5-3.1,3.5c-1.9,0-3.1-1.4-3.1-3.5
		c0-2.7,0.1-5.4,0-8.1c-0.1-1.9,0.6-3.3,2.4-4C52.8,5.1,53.4,5.1,53.9,5.1z"/>
	<path class="st0" d="M17.7,46.8c0-3.5,0-6.8,0-10.3c3.4,0,6.8,0,10.3,0c0,3.4,0,6.8,0,10.3C24.6,46.8,21.2,46.8,17.7,46.8z"/>
	<path class="st0" d="M43.7,36.5c0,3.4,0,6.8,0,10.2c-3.4,0-6.8,0-10.3,0c0-3.4,0-6.8,0-10.2C36.7,36.5,40.1,36.5,43.7,36.5z"/>
	<path class="st0" d="M59.3,46.8c-3.4,0-6.8,0-10.3,0c0-3.5,0-6.9,0-10.3c3.4,0,6.8,0,10.3,0C59.3,39.9,59.3,43.3,59.3,46.8z"/>
	<path class="st0" d="M28,51.1c0,3.4,0,6.8,0,10.3c-3.4,0-6.8,0-10.3,0c0-3.4,0-6.8,0-10.3C21.1,51.1,24.5,51.1,28,51.1z"/>
	<path class="st0" d="M33.4,51.1c3.5,0,6.8,0,10.3,0c0,3.4,0,6.8,0,10.3c-3.4,0-6.8,0-10.3,0C33.4,58,33.4,54.6,33.4,51.1z"/>
	<path class="st0" d="M59.3,61.4c-3.5,0-6.8,0-10.3,0c0-3.4,0-6.8,0-10.3c3.4,0,6.8,0,10.3,0C59.3,54.5,59.3,57.9,59.3,61.4z"/>
</g>
</svg>
