<?xml version="1.0" encoding="utf-8"?>
<!-- Generator: Adobe Illustrator 21.1.0, SVG Export Plug-In . SVG Version: 6.00 Build 0)  -->
<svg version="1.1" id="Laag_1" xmlns="http://www.w3.org/2000/svg" xmlns:xlink="http://www.w3.org/1999/xlink" x="0px" y="0px"
	 width="30px" height="30px" viewBox="0 0 30 30" style="enable-background:new 0 0 30 30;" xml:space="preserve">
<style type="text/css">
	.st0{fill:#00D36C;}
</style>
<g>
	<path class="st0" d="M4.2,15.1c0.7-0.7,1.4-1.3,2-2c0.5-0.5,1-1,1.6-1.6c1.7,1.6,3.4,3.3,5.2,4.9c3.7-3.8,7.4-7.5,11.1-11.3
		c1.2,1.2,2.4,2.4,3.6,3.6c0,0,0,0.1,0,0.1c-0.1,0.1-0.3,0.2-0.4,0.3c-4.6,4.7-9.3,9.5-13.9,14.2c-0.1,0.1-0.2,0.3-0.3,0.4
		c-0.2-0.2-0.3-0.3-0.5-0.4c-2.7-2.6-5.4-5.3-8.1-7.9C4.4,15.4,4.3,15.3,4.2,15.1C4.2,15.2,4.2,15.2,4.2,15.1z"/>
</g>
</svg>
