<?xml version="1.0" encoding="utf-8"?>
<!-- Generator: Adobe Illustrator 21.1.0, SVG Export Plug-In . SVG Version: 6.00 Build 0)  -->
<svg version="1.1" id="Laag_1" xmlns="http://www.w3.org/2000/svg" xmlns:xlink="http://www.w3.org/1999/xlink" x="0px" y="0px"
	 width="30px" height="30px" viewBox="0 0 30 30" style="enable-background:new 0 0 30 30;" xml:space="preserve">
<style type="text/css">
	.st0{fill:#8B8B8B;}
</style>
<g>
	<g>
		<path class="st0" d="M25.9,23.1H4.1c-2,0-3.6-1.6-3.6-3.6V6.2c0-2,1.6-3.6,3.6-3.6h21.8c2,0,3.6,1.6,3.6,3.6v13.2
			C29.5,21.5,27.9,23.1,25.9,23.1z M4.1,4.6c-0.9,0-1.7,0.7-1.7,1.7v13.2c0,0.9,0.7,1.7,1.7,1.7h21.8c0.9,0,1.7-0.7,1.7-1.7V6.2
			c0-0.9-0.7-1.7-1.7-1.7H4.1z"/>
	</g>
	<g>
		<path class="st0" d="M23.6,27.4H7.1c-0.5,0-1-0.4-1-1s0.4-1,1-1h16.5c0.5,0,1,0.4,1,1S24.1,27.4,23.6,27.4z"/>
	</g>
</g>
</svg>
