<?xml version="1.0" encoding="utf-8"?>
<!-- Generator: Adobe Illustrator 21.1.0, SVG Export Plug-In . SVG Version: 6.00 Build 0)  -->
<svg version="1.1" id="Laag_1" xmlns="http://www.w3.org/2000/svg" xmlns:xlink="http://www.w3.org/1999/xlink" x="0px" y="0px"
	 width="30px" height="30px" viewBox="0 0 30 30" style="enable-background:new 0 0 30 30;" xml:space="preserve">
<style type="text/css">
	.st0{fill:#00D36C;}
</style>
<g>
	<g>
		<path class="st0" d="M24,1H11.3C9.5,1,8.1,2.4,8.1,4.2v4.3h2.7V4.2c0-0.3,0.2-0.5,0.5-0.5H24c0.3,0,0.5,0.2,0.5,0.5v21.6
			c0,0.3-0.2,0.5-0.5,0.5h-6.4c-0.1,1-0.5,1.9-1.1,2.7H24c1.8,0,3.2-1.4,3.2-3.2V4.2C27.2,2.4,25.8,1,24,1z M8.1,26.3
			c0.3,1.5,1.6,2.7,3.2,2.7h1.3c1.6,0,2.9-1.2,3.2-2.7H8.1z M8.1,10.3V13h2.7v-2.7H8.1z"/>
	</g>
	<g>
		<g>
			<path class="st0" d="M12.6,10.3H6c-1.8,0-3.2,1.4-3.2,3.2v12.3C2.8,27.6,4.2,29,6,29h6.7c1.6,0,2.9-1.2,3.2-2.7
				c0-0.2,0-0.4,0-0.5V13.5C15.8,11.8,14.4,10.3,12.6,10.3z M6,26.3c-0.3,0-0.5-0.2-0.5-0.5V13.5C5.4,13.2,5.7,13,6,13h6.7
				c0.3,0,0.5,0.2,0.5,0.5v12.3c0,0.3-0.2,0.5-0.5,0.5H6z"/>
		</g>
	</g>
	<path class="st0" d="M9.2,24.2L9.2,24.2c-0.6,0-1.1-0.5-1.1-1.1v0c0-0.6,0.5-1.1,1.1-1.1h0c0.6,0,1.1,0.5,1.1,1.1v0
		C10.2,23.7,9.8,24.2,9.2,24.2z"/>
	<path class="st0" d="M18,24.2L18,24.2c-0.6,0-1.1-0.5-1.1-1.1v0c0-0.6,0.5-1.1,1.1-1.1h0c0.6,0,1.1,0.5,1.1,1.1v0
		C19,23.7,18.6,24.2,18,24.2z"/>
</g>
</svg>
