<?xml version="1.0" encoding="utf-8"?>
<!-- Generator: Adobe Illustrator 21.1.0, SVG Export Plug-In . SVG Version: 6.00 Build 0)  -->
<svg version="1.1" id="Laag_1" xmlns="http://www.w3.org/2000/svg" xmlns:xlink="http://www.w3.org/1999/xlink" x="0px" y="0px"
	 width="300px" height="300px" viewBox="0 0 300 300" style="enable-background:new 0 0 300 300;" xml:space="preserve">
<style type="text/css">
	.st0{fill:#FF3268;}
</style>
<g>
	<g>
		<g>
			<path class="st0" d="M11.9,177.5c12.9,0,25.4,0,38.2,0c0,21.7,0,43.3,0,65c66.7,0,133.2,0,200,0c0-21.6,0-43.2,0-65
				c12.9,0,25.4,0,38.3,0c0.1,1,0.2,2,0.2,3c0,26.5,0,53.1,0,79.6c0,13.1-8,21.1-21.1,21.1c-78.3,0-156.7,0-235,0
				c-10.3,0-17.5-5.2-20-14.4c-0.5-2-0.7-4-0.7-6.1c0-26.9,0-53.8,0-80.7C11.7,179.2,11.8,178.5,11.9,177.5z"/>
		</g>
	</g>
	<g>
		<polygon class="st0" points="147.4,181.2 70.7,104.4 98.9,76.1 147.4,124.6 253.3,18.7 281.5,47 		"/>
	</g>
</g>
</svg>
