<?xml version="1.0" encoding="utf-8"?>
<!-- Generator: Adobe Illustrator 21.1.0, SVG Export Plug-In . SVG Version: 6.00 Build 0)  -->
<svg version="1.1" id="Laag_1" xmlns="http://www.w3.org/2000/svg" xmlns:xlink="http://www.w3.org/1999/xlink" x="0px" y="0px"
	 width="300px" height="300px" viewBox="0 0 300 300" style="enable-background:new 0 0 300 300;" xml:space="preserve">
<style type="text/css">
	.st0{fill:#FFFFFF;}
</style>
<g>
	<g>
		<path class="st0" d="M173.4,14.3c2.5,1.2,3,3.3,3,5.9c-0.1,28.2,0,56.4,0,84.6c0,1.1,0,2.3,0,3.7c1.2,0,2.1,0,3.1,0
			c7.4,0,14.8,0,22.2,0c1,0,1.9,0,2.9,0.1c4.5,0.5,5.5,2.5,2.8,6.1c-16.3,21.2-32.7,42.5-49.2,63.5c-5.4,6.9-8,6.6-13.6-0.1
			c-16.9-20.4-33.9-40.8-50.8-61.3c-1.1-1.3-1.5-3.2-2.2-4.8c1.7-0.5,3.3-1.4,5-1.5c8.3-0.2,16.6-0.1,24.9-0.1c1,0,1.9,0,3.1,0
			c0-1.1,0.1-2.1,0.1-3c0-29.2,0-58.4-0.1-87.5c0-2.7,0.7-4.6,3.2-5.6C143.1,14.3,158.3,14.3,173.4,14.3z"/>
		<path class="st0" d="M19.3,187.1c12.2,0,24,0,36.2,0c0,20.5,0,40.9,0,61.5c63.2,0,126.1,0,189.3,0c0-20.4,0-40.9,0-61.5
			c12.2,0,24.1,0,36.3,0c0.1,0.9,0.1,1.9,0.1,2.8c0,25.1,0,50.3,0,75.4c0,12.4-7.6,19.9-19.9,19.9c-74.1,0-148.3,0-222.4,0
			c-9.7,0-16.6-4.9-19-13.7c-0.5-1.8-0.7-3.8-0.7-5.7c0-25.5,0-51,0-76.4C19.1,188.7,19.2,188,19.3,187.1z"/>
	</g>
</g>
</svg>
