<?xml version="1.0" encoding="utf-8"?>
<!-- Generator: Adobe Illustrator 21.1.0, SVG Export Plug-In . SVG Version: 6.00 Build 0)  -->
<svg version="1.1" id="Laag_1" xmlns="http://www.w3.org/2000/svg" xmlns:xlink="http://www.w3.org/1999/xlink" x="0px" y="0px"
	 width="30px" height="30px" viewBox="0 0 30 30" style="enable-background:new 0 0 30 30;" xml:space="preserve">
<style type="text/css">
	.st0{fill:#00D36C;}
</style>
<g>
	<g>
		<path class="st0" d="M17.4,1.1c0.3,0.1,0.3,0.3,0.3,0.6c0,2.9,0,5.8,0,8.7c0,0.1,0,0.2,0,0.4c0.1,0,0.2,0,0.3,0c0.8,0,1.5,0,2.3,0
			c0.1,0,0.2,0,0.3,0c0.5,0.1,0.6,0.3,0.3,0.6c-1.7,2.2-3.4,4.4-5,6.5c-0.6,0.7-0.8,0.7-1.4,0c-1.7-2.1-3.5-4.2-5.2-6.3
			c-0.1-0.1-0.2-0.3-0.2-0.5C9.2,11.1,9.3,11,9.5,11c0.9,0,1.7,0,2.6,0c0.1,0,0.2,0,0.3,0c0-0.1,0-0.2,0-0.3c0-3,0-6,0-9
			c0-0.3,0.1-0.5,0.3-0.6C14.3,1.1,15.8,1.1,17.4,1.1z"/>
		<path class="st0" d="M1.6,18.8c1.3,0,2.5,0,3.7,0c0,2.1,0,4.2,0,6.3c6.5,0,12.9,0,19.4,0c0-2.1,0-4.2,0-6.3c1.3,0,2.5,0,3.7,0
			c0,0.1,0,0.2,0,0.3c0,2.6,0,5.2,0,7.7c0,1.3-0.8,2-2,2c-7.6,0-15.2,0-22.8,0c-1,0-1.7-0.5-2-1.4c-0.1-0.2-0.1-0.4-0.1-0.6
			c0-2.6,0-5.2,0-7.8C1.5,19,1.6,18.9,1.6,18.8z"/>
	</g>
</g>
</svg>
