<?xml version="1.0" encoding="utf-8"?>
<!-- Generator: Adobe Illustrator 21.1.0, SVG Export Plug-In . SVG Version: 6.00 Build 0)  -->
<svg version="1.1" id="Laag_1" xmlns="http://www.w3.org/2000/svg" xmlns:xlink="http://www.w3.org/1999/xlink" x="0px" y="0px"
	 width="30px" height="30px" viewBox="0 0 30 30" style="enable-background:new 0 0 30 30;" xml:space="preserve">
<style type="text/css">
	.st0{fill:#00D36C;}
</style>
<g>
	<g>
		<path class="st0" d="M21.7,29.8H8.3c-1.9,0-3.5-1.6-3.5-3.5V3.7c0-1.9,1.6-3.5,3.5-3.5h13.3c1.9,0,3.5,1.6,3.5,3.5v22.6
			C25.1,28.2,23.6,29.8,21.7,29.8z M8.3,2c-1,0-1.7,0.8-1.7,1.7v22.6c0,1,0.8,1.7,1.7,1.7h13.3c1,0,1.7-0.8,1.7-1.7V3.7
			c0-1-0.8-1.7-1.7-1.7H8.3z"/>
	</g>
	<g>
		<circle class="st0" cx="15" cy="23.2" r="1.5"/>
	</g>
</g>
</svg>
