<?xml version="1.0" encoding="utf-8"?>
<!-- Generator: Adobe Illustrator 21.1.0, SVG Export Plug-In . SVG Version: 6.00 Build 0)  -->
<svg version="1.1" id="Laag_1" xmlns="http://www.w3.org/2000/svg" xmlns:xlink="http://www.w3.org/1999/xlink" x="0px" y="0px"
	 width="30px" height="30px" viewBox="0 0 30 30" style="enable-background:new 0 0 30 30;" xml:space="preserve">
<style type="text/css">
	.st0{fill:#8B8B8B;}
</style>
<g>
	<g>
		<circle class="st0" cx="15.2" cy="23.1" r="1.5"/>
	</g>
	<path class="st0" d="M24,2.5c0.6,0,1.2,0.5,1.2,1.2v22.7c0,0.6-0.5,1.2-1.2,1.2H6c-0.6,0-1.2-0.5-1.2-1.2V3.6C4.8,3,5.4,2.5,6,2.5
		H24 M24,0.7H6c-1.6,0-3,1.3-3,3v22.7c0,1.6,1.3,3,3,3H24c1.6,0,3-1.3,3-3V3.6C26.9,2,25.6,0.7,24,0.7L24,0.7z"/>
</g>
</svg>
