<?xml version="1.0" encoding="utf-8"?>
<!-- Generator: Adobe Illustrator 21.1.0, SVG Export Plug-In . SVG Version: 6.00 Build 0)  -->
<svg version="1.1" id="Laag_1" xmlns="http://www.w3.org/2000/svg" xmlns:xlink="http://www.w3.org/1999/xlink" x="0px" y="0px"
	 width="40.6px" height="40.6px" viewBox="0 0 40.6 40.6" style="enable-background:new 0 0 40.6 40.6;" xml:space="preserve">
<style type="text/css">
	.st0{fill:#00D66C;}
</style>
<path class="st0" d="M20.3,0.3c-11,0-20,9-20,20s9,20,20,20s20-9,20-20S31.4,0.3,20.3,0.3z M22.3,33.1c-4.9,0-8.9-4-8.9-8.9
	c0,0,0,0,0,0c0,0,0-0.1,0-0.1v-4.3H9.9c-0.9,0-1.7-0.8-1.7-1.7v-0.8c0-0.9,0.8-1.7,1.7-1.7h6.3c0.2,0,0.4,0,0.6,0.1
	c0-0.1,0-0.2,0-0.3V9.1c0-0.9,0.8-1.7,1.7-1.7h1.2c0.9,0,1.7,0.8,1.7,1.7V13h3.5c0.9,0,1.7,0.8,1.7,1.7v0.8c0,0.9-0.8,1.7-1.7,1.7
	h-5c-0.1,0-0.1,0-0.2,0h-1.2c-0.2,0-0.4,0-0.6-0.1c0,0.1,0,0.2,0,0.3v0.1c0,0.1,0,0.2,0,0.3v6.3c0,0.1,0,0.1,0,0.2c0,0,0,0,0,0
	c0,2.4,1.9,4.3,4.3,4.3s4.3-1.9,4.3-4.3v0c0-0.5,0.4-1,1-1h2.6c0.5,0,1,0.4,1,1v0C31.1,29.1,27.1,33.1,22.3,33.1z"/>
</svg>
